<?xml version="1.0" encoding="utf-8"?>
<!-- Generator: Adobe Illustrator 25.0.0, SVG Export Plug-In . SVG Version: 6.00 Build 0)  -->
<svg version="1.1" id="Layer_1" xmlns="http://www.w3.org/2000/svg" xmlns:xlink="http://www.w3.org/1999/xlink" x="0px" y="0px"
	 viewBox="0 0 595.28 841.89" style="enable-background:new 0 0 595.28 841.89;" xml:space="preserve">
<style type="text/css">
	.st0{fill:#FFFFFF;}
	.st1{fill:none;}
	.st2{fill:url(#SVGID_1_);}
	.st3{fill:none;stroke:#DE3C4B;stroke-miterlimit:10;}
	.st4{fill:#DE3C4B;}
</style>
<path class="st0" d="M71.39,552.87c13.52,3.3,23.89,8.06,30.52,11.54c0,0,10.15,5.33,42.96,29.69l0,0
	c5.39,2.25,10.99-2.38,12.44-9.9c1.72-8.96-3.53-16.47-7.37-17.97c-0.2-0.08-0.38-0.13-0.54-0.18L71.39,552.87z"/>
<path class="st1" d="M333.22,81.46"/>
<path class="st0" d="M282.9,423.08c-22.23,10.88-44.47,21.76-66.7,32.64c0,0-24.31,11.89-24.31,11.89c0.02,4.6,0.12,9.27,0.3,14.03
	c1.05,27.44,4.79,52.56,9.88,75.03c7.54,0,15.07,0,22.61,0l-3.39-57.72l48.61-9.07l13,27.21l11.08,31.34l5.32,33.81l-11.31,78.34
	c-2.1-3.21-48-13.15-51.88-7.56c-3.09,4.45,13.49,24.01,29.48,40.49c11.42,11.76,22.54,21.94,26.01,23.95
	c0.68,0.39,2.17,1.7,4.32,2.4c6.16,2.02,11.61-1.84,13.54-3.2c14.58-10.31,22-45.89,23.74-57.72c1.13-7.7,2.26-15.39,3.39-23.09
	l67.83,44.53l59.92,70.92l58.79-19.79v-14.84c-5.68-1.11-11.37-2.21-17.05-3.32c-11.27-2.19-22.55-4.39-33.82-6.58
	c-23.74-35.18-47.48-70.37-71.22-105.55l-38.44-23.09v-54.43v-42.88c20.96,9.23,47.04,17.05,77.19,18.14
	c4.93,0.18,9.73,0.17,14.38,0c4.52-19.79,9.04-39.58,13.57-59.37l19.22-11.54h14.7c8.6,2.35,10.91,1.42,11.31,0
	c0.93-3.33-7.28-14.22-17.35-17.7c-10.92-3.77-13.29,4.9-24.48,1.2c-9-2.97-11.02-9.85-20.35-9.9c-5.21-0.03-11.03,1.9-11.31,4.95
	c-0.36,3.97,9.08,5.16,11.31,13.19c2.86,10.34-7.43,27.65-14.7,34.63c-15.32,14.72-49.26,0.93-79.14-29.69"/>
<path class="st0" d="M190.41,281.91"/>
<path class="st0" d="M479.78,324.76c0.46-0.16-1.92-7.51,0.49-14.69c1.02-3.04,1.92-3.13,2.7-6.45c0.24-1.04,1.56-6.6-0.25-11.1
	c-1.43-3.56-3.38-2.91-4.17-6.09c-0.89-3.55,0.75-7.54,1.47-9.31c1.84-4.49,3.42-3.99,4.67-7.52c1.34-3.8,1.18-9.08-0.25-12.9
	c-2.22-5.94-6.58-5.88-6.88-10.39c-0.19-2.87,1.43-5.3,1.72-5.73c2.17-3.26,4.5-1.47,7.12-4.66c2.05-2.5,2.86-6.32,2.46-6.81
	c-0.32-0.38-1.36,1.27-4.17,3.58c-0.74,0.61-1.49,1.13-2.95,2.15c-5.83,4.07-6.59,3.98-7.37,5.73c-0.95,2.15-1.02,5.04-0.49,7.16
	c0.68,2.72,1.95,2.58,4.17,6.45c1.16,2.02,2.37,4.13,2.7,7.16c0.41,3.73-0.72,6.85-1.23,8.24c-1.88,5.18-4.05,4.67-4.91,8.6
	c-1.08,4.93,1.36,10.16,1.47,10.39c1.3,2.7,2.3,2.41,3.44,5.37c0.25,0.66,1.5,3.91,0.98,7.52c-0.44,3.04-1.75,3.75-2.7,6.09
	C475.11,314.27,479.22,324.96,479.78,324.76z"/>
<path class="st0" d="M474.89,333.71c-0.06-0.2-0.19-0.49-1.5-1.38c-1.04-0.7-1.2-0.68-1.34-1.04c-0.34-0.86,0.11-2.24,0.55-2.99
	c0.3-0.5,0.62-0.75,1.26-1.27c0.56-0.44,1.04-0.72,1.42-0.92c0.93-0.49,1.41-0.57,2.76-1.04c2-0.68,1.7-0.75,2.21-0.81
	c0.9-0.1,1.02,0.2,3.23,0.69c1.45,0.32,1.46,0.2,2.05,0.46c0.52,0.23,0.48,0.3,2.29,1.5c0.9,0.59,1.2,0.77,1.66,1.27
	c0.45,0.5,0.84,0.93,1.02,1.73c0.04,0.19,0.25,1.15-0.08,2.07c-0.39,1.09-1.29,1.4-1.58,1.5c-0.78,0.26-1.19-0.08-1.42,0.34
	c-0.27,0.5,0.18,1.21-0.08,1.73c-0.23,0.48-0.82,0.3-1.97,0.23c-0.63-0.04-1.26,0.02-1.89,0c-2.36-0.07-2.27,0.21-4.1,0.12
	c-2.14-0.11-2.08-0.49-3.07-0.23c-0.57,0.15-1.18,0.42-1.42,0C474.63,335.21,475.12,334.51,474.89,333.71z"/>
<path class="st0" d="M489.12,324.76c0.46-0.16-1.92-7.51,0.49-14.69c1.02-3.04,1.92-3.13,2.7-6.45c0.24-1.04,1.56-6.6-0.25-11.1
	c-1.43-3.56-3.38-2.91-4.17-6.09c-0.89-3.55,0.75-7.54,1.47-9.31c1.84-4.49,3.42-3.99,4.67-7.52c1.34-3.8,1.18-9.08-0.25-12.9
	c-2.22-5.94-6.58-5.88-6.88-10.39c-0.19-2.87,1.43-5.3,1.72-5.73c2.17-3.26,4.5-1.47,7.12-4.66c2.05-2.5,2.86-6.32,2.46-6.81
	c-0.32-0.38-1.36,1.27-4.17,3.58c-0.74,0.61-1.49,1.13-2.95,2.15c-5.83,4.07-6.59,3.98-7.37,5.73c-0.95,2.15-1.02,5.04-0.49,7.16
	c0.68,2.72,1.95,2.58,4.17,6.45c1.16,2.02,2.37,4.13,2.7,7.16c0.41,3.73-0.72,6.85-1.23,8.24c-1.88,5.18-4.05,4.67-4.91,8.6
	c-1.08,4.93,1.36,10.16,1.47,10.39c1.3,2.7,2.3,2.41,3.44,5.37c0.25,0.66,1.5,3.91,0.98,7.52c-0.44,3.04-1.75,3.75-2.7,6.09
	C484.45,314.27,488.56,324.96,489.12,324.76z"/>
<path class="st0" d="M470.45,330.08c0.46-0.16-1.92-7.51,0.49-14.69c1.02-3.04,1.92-3.13,2.7-6.45c0.24-1.04,1.56-6.6-0.25-11.1
	c-1.43-3.56-3.38-2.91-4.17-6.09c-0.89-3.55,0.75-7.54,1.47-9.31c1.84-4.49,3.42-3.99,4.67-7.52c1.34-3.8,1.18-9.08-0.25-12.9
	c-2.22-5.94-6.58-5.88-6.88-10.39c-0.19-2.87,1.43-5.3,1.72-5.73c2.17-3.26,4.5-1.47,7.12-4.66c2.05-2.5,2.86-6.32,2.46-6.81
	c-0.32-0.38-1.36,1.27-4.17,3.58c-0.74,0.61-1.49,1.13-2.95,2.15c-5.83,4.07-6.59,3.98-7.37,5.73c-0.95,2.15-1.02,5.04-0.49,7.16
	c0.68,2.72,1.95,2.58,4.17,6.45c1.16,2.02,2.37,4.13,2.7,7.16c0.41,3.73-0.72,6.85-1.23,8.24c-1.88,5.18-4.05,4.67-4.91,8.6
	c-1.08,4.93,1.36,10.16,1.47,10.39c1.3,2.7,2.3,2.41,3.44,5.37c0.25,0.66,1.5,3.91,0.98,7.52c-0.44,3.04-1.75,3.75-2.7,6.09
	C465.77,319.59,469.89,330.28,470.45,330.08z"/>
<path class="st0" d="M12.3,659.6c22.06,4.51,38.99,11.02,49.82,15.78c0,0,16.57,7.28,70.12,40.58l0,0
	c8.79,3.08,17.94-3.25,20.3-13.53c2.81-12.24-5.76-22.51-12.03-24.56c-0.32-0.1-0.62-0.18-0.88-0.24L12.3,659.6z"/>
<path class="st0" d="M41.82,602.46c17.44,4.51,30.81,11.02,39.37,15.78c0,0,13.1,7.28,55.41,40.58l0,0
	c6.95,3.08,14.18-3.25,16.04-13.53c2.22-12.24-4.56-22.51-9.51-24.56c-0.25-0.1-0.49-0.18-0.7-0.24L41.82,602.46z"/>
<path class="st0" d="M233.36,577.23c-0.82,1.44-2.04,1.49-4.48,1.98c-3.38,0.67-6.2,1.23-8.36,2.54c-3.13,1.9-4.84,5.35-6.12,7.91
	c-2.59,5.21-1.56,6.91-4.08,12.99c-1.31,3.16-3.22,7.77-6.93,10.45c-2.89,2.08-3.4,0.49-7.54,3.11c-3.05,1.93-3.83,3.46-6.52,3.95
	c-0.71,0.13-2.71,0.4-4.89-0.85c-0.96-0.55-2.09-1.2-2.65-2.82c-0.59-1.72-0.17-3.51,0-4.23c0.55-2.33,1.76-3.7,2.24-4.23
	c4.33-4.87,6.49-7.31,6.93-7.91c1.11-1.52,2.51-4.68,5.3-11.01c1.49-3.38,2.25-5.1,2.65-6.49c1.15-3.97,0.86-5.81,1.63-11.58
	c0.81-6.07,1.22-9.1,2.24-10.45c3.12-4.1,10.33-1.98,14.88,1.69c3.88,3.13,3.83,5.78,7.34,7.06c4.05,1.48,6.81-1.07,8.36,1.41
	C234.42,572.43,234.33,575.53,233.36,577.23z"/>
<linearGradient id="SVGID_1_" gradientUnits="userSpaceOnUse" x1="472.7746" y1="13.1476" x2="472.7746" y2="13.1476">
	<stop  offset="0" style="stop-color:#FFFFFF"/>
	<stop  offset="0.194" style="stop-color:#DE3C4B;stop-opacity:0"/>
	<stop  offset="0.2838" style="stop-color:#6D2A31;stop-opacity:0.6618"/>
	<stop  offset="0.321" style="stop-color:#5D242A;stop-opacity:0.6857"/>
	<stop  offset="0.4126" style="stop-color:#3C171B;stop-opacity:0.7445"/>
	<stop  offset="0.5066" style="stop-color:#210D0F;stop-opacity:0.8049"/>
	<stop  offset="0.6027" style="stop-color:#0F0607;stop-opacity:0.8666"/>
	<stop  offset="0.7021" style="stop-color:#040102;stop-opacity:0.9305"/>
	<stop  offset="0.8103" style="stop-color:#000000"/>
</linearGradient>
<path class="st2" d="M472.77,13.15"/>
<path class="st1" d="M466.11,11.09"/>
<path d="M331.11,261.1"/>
<line class="st3" x1="332" y1="229.07" x2="331.11" y2="229.07"/>
<path class="st4" d="M407.17,325.97"/>
<path class="st0" d="M416.88,377.22c-2.69,5.82-5.56,8.71-7.85,10.26c-3.07,2.08-6.36,2.63-6.42,4.51
	c-0.01,0.44,0.15,0.92,2.27,3.27c1.83,2.03,2.79,3.09,3.92,4.02c4.33,3.55,10.02,4.21,15.7,4.86c0.46,0.05,1.89,0.21,3.8,0.66
	c1.2,0.28,2.07,0.56,2.32,0.64c3.36,1.05,9.85,2.06,10.53,2.17c14.28,2.19,21.42,3.29,23.55,3.47c4.14,0.35,10.85,0.23,24.26,0
	c5.57-0.1,3.83-0.1,25.69-0.69c7.96-0.22,13.22-0.35,20.69-1.04c1.41-0.13,6.49-1.13,16.65-3.12c0.28-0.05,5.41-1.12,11.18-5.2
	c2.77-1.96,4.26-3.61,4.28-5.55c0.02-1.65-1.04-2.9-2.14-4.16c-1.52-1.75-3.5-3.21-7.61-4.51c-4.75-1.51-5.38-0.6-6.42-2.08
	c-1.79-2.54-0.17-5.5-1.67-11.45c-0.88-3.48-2.23-5.66-4.76-9.72c-2.46-3.95-4.68-6.35-5.23-6.94c-1.65-1.75-3.32-3.02-6.66-5.55
	c-2.93-2.22-4.74-3.59-7.37-5.2c-3.45-2.11-6.17-3.32-8.09-4.16c-4.46-1.96-8.04-3.01-9.75-3.47c-2.65-0.72-4.62-1.06-8.56-1.73
	c-3.67-0.63-5.51-0.95-7.61-1.04c-1.95-0.09-2.51,0.04-8.09,0.35c-5.73,0.32-5.08,0.18-7.14,0.35c-3.26,0.26-6.02,0.76-11.42,1.74
	c-4.89,0.89-7.34,1.33-10.23,2.08c-4.4,1.15-6.6,1.72-9.51,3.12c-3.7,1.78-6.34,3.8-9.99,6.59c-3.11,2.38-4.67,3.57-6.42,5.55
	c-3.05,3.44-5.01,7.15-6.18,9.72"/>
<path class="st4" d="M198.01,290.53"/>
<path class="st4" d="M219.04,224.08"/>
<path class="st4" d="M210.28,221.52"/>
<ellipse class="st0" cx="322.34" cy="360.54" rx="48.02" ry="50.76"/>
<path class="st0" d="M36.87,505.96"/>
<path class="st0" d="M236.11,652.26l18.92-24.72c4.74,4.82,9.6,9.66,14.59,14.54c6.18,6.03,12.3,11.87,18.37,17.52"/>
<path class="st0" d="M255.03,627.54"/>
<path class="st0" d="M255.03,627.54"/>
<path class="st0" d="M41.64,391.12"/>
<polyline class="st0" points="249.39,619.51 274.32,648.3 241.69,671.98 216.46,675.26 199.94,655.33 "/>
<path class="st0" d="M105.99,314.52"/>
</svg>
